<mxfile host="app.diagrams.net" modified="2024-07-05T06:49:11.027Z" agent="Mozilla/5.0 (Windows NT 10.0; Win64; x64) AppleWebKit/537.36 (KHTML, like Gecko) Chrome/126.0.0.0 Safari/537.36" version="24.6.4" etag="IzVZ6Di7JSXWKm71e87M" type="github">
  <diagram name="第 1 页" id="I0TlvrgMXbtS32mMWi9s">
    <mxGraphModel>
      <root>
        <mxCell id="0" />
        <mxCell id="1" parent="0" />
      </root>
    </mxGraphModel>
  </diagram>
</mxfile>
